{
  "asset" : {
    "generator" : "UE Viewer (umodel) build 1590",
    "version" : "2.0"
  },
  "scene" : 0,
  "scenes" : [
    {
      "nodes" : [ 0 ]
    }
  ],
  "nodes" : [
    {
      "name" : "neighbour_lowpoly",
      "mesh" : 0,
      "skin" : 0,
      "children" : [ 1 ]
    },
    {
      "name" : "root",
      "children" : [ 2, 212, 215, 218, 220, 223 ],
      "translation" : [ 0, 0, 0 ],
      "rotation" : [ 3.06162e-17, -0, -0, 1 ]
    },
    {
      "name" : "ORG-hips",
      "children" : [ 3, 178, 194, 210 ],
      "translation" : [ 0, 0.94967, -0.0519079 ],
      "rotation" : [ -0.778973, -0, 0, -0.627058 ]
    },
    {
      "name" : "ORG-spine",
      "children" : [ 4, 176 ],
      "translation" : [ 0, -4.41211e-08, -0.167296 ],
      "rotation" : [ 0.0546678, -0, -0, -0.998505 ]
    },
    {
      "name" : "ORG-chest",
      "children" : [ 5, 8, 91, 174 ],
      "translation" : [ 0, 2.83678e-08, -0.149508 ],
      "rotation" : [ 0.0702504, -0, -0, -0.997529 ]
    },
    {
      "name" : "ORG-neck",
      "children" : [ 6 ],
      "translation" : [ -7.99232e-10, -0.00780329, -0.189695 ],
      "rotation" : [ -0.306029, -3.25108e-08, 1.09655e-07, -0.952022 ]
    },
    {
      "name" : "DEF-head",
      "children" : [ 7 ],
      "translation" : [ -1.3923e-14, 1.93989e-07, -0.0831681 ],
      "rotation" : [ 0.302363, 6.85358e-08, 3.09839e-09, -0.953193 ]
    },
    {
      "name" : "DEF-head_end",
      "translation" : [ 0.102208, 0.270962, -0.187918 ],
      "rotation" : [ -0.205694, 0.130976, -0.0154756, -0.969688 ]
    },
    {
      "name" : "ORG-shoulder_L",
      "children" : [ 9, 89 ],
      "translation" : [ 0.057665, 0.167775, -0.198397 ],
      "rotation" : [ 0.603226, 0.357203, -0.344759, -0.624232 ]
    },
    {
      "name" : "ORG-upper_arm_L",
      "children" : [ 10, 87 ],
      "translation" : [ -0.0182241, -0.0161122, -0.231815 ],
      "rotation" : [ 0.0451372, 0.328747, 0.724158, -0.604552 ]
    },
    {
      "name" : "ORG-forearm_L",
      "children" : [ 11, 81, 83 ],
      "translation" : [ 1.76151e-07, 1.24979e-08, -0.28558 ],
      "rotation" : [ -0.0646477, -0.0114965, 0.012511, -0.997764 ]
    },
    {
      "name" : "ORG-hand_L",
      "children" : [ 12, 37, 51, 65, 79 ],
      "translation" : [ -3.32399e-07, -2.43538e-09, -0.326309 ],
      "rotation" : [ 0.00679623, 0.0387707, 0.701146, -0.71193 ]
    },
    {
      "name" : "ORG-palm_01_L",
      "children" : [ 13, 22, 31, 33, 35 ],
      "translation" : [ -0.0203991, -0.00883902, -0.0309002 ],
      "rotation" : [ -0.00683177, -0.114072, 0.00186145, -0.993447 ]
    },
    {
      "name" : "ORG-f_index_01_L",
      "children" : [ 14, 20 ],
      "translation" : [ -1.95107e-08, -8.12582e-08, -0.0742085 ],
      "rotation" : [ -0.270303, 0.00148798, 0.0251913, -0.962445 ]
    },
    {
      "name" : "ORG-f_index_02_L",
      "children" : [ 15, 18 ],
      "translation" : [ 4.79953e-08, -2.76451e-07, -0.0471604 ],
      "rotation" : [ -0.0778543, -0.00214751, -0.0125796, -0.996883 ]
    },
    {
      "name" : "ORG-f_index_03_L",
      "children" : [ 16 ],
      "translation" : [ 3.33397e-08, 8.72729e-08, -0.0295525 ],
      "rotation" : [ -0.11534, 0.0279196, -0.0228174, -0.992671 ]
    },
    {
      "name" : "DEF-f_index_03_L",
      "children" : [ 17 ],
      "translation" : [ -1.39589e-08, 1.8471e-08, 1.0903e-07 ],
      "rotation" : [ -4.67099e-08, 1.30581e-09, -1.38723e-08, -1 ]
    },
    {
      "name" : "DEF-f_index_03_L_end",
      "translation" : [ -0.216483, 0.739968, -0.0684319 ],
      "rotation" : [ -0.117742, -0.489832, 0.545756, -0.669591 ]
    },
    {
      "name" : "DEF-f_index_02_L",
      "children" : [ 19 ],
      "translation" : [ -2.08393e-08, 5.20882e-08, -4.7731e-08 ],
      "rotation" : [ -4.82453e-08, 6.44321e-09, -5.34169e-09, -1 ]
    },
    {
      "name" : "DEF-f_index_02_L_end",
      "translation" : [ -0.237938, 0.708551, 0.0677353 ],
      "rotation" : [ -0.119467, -0.606532, 0.411696, -0.669592 ]
    },
    {
      "name" : "DEF-f_index_01_L_02",
      "children" : [ 21 ],
      "translation" : [ 1.96776e-08, -1.20562e-07, -0.0235802 ],
      "rotation" : [ 7.33485e-07, 1.74133e-07, 8.1256e-07, -1 ]
    },
    {
      "name" : "DEF-f_index_01_L_02_end",
      "translation" : [ -0.233358, 0.663391, 0.157713 ],
      "rotation" : [ -0.101844, -0.665909, 0.312792, -0.669592 ]
    },
    {
      "name" : "ORG-thumb_01_L",
      "children" : [ 23, 29 ],
      "translation" : [ -0.026232, 0.0260588, 0.00702456 ],
      "rotation" : [ -0.0382233, -0.268519, 0.706548, -0.653625 ]
    },
    {
      "name" : "ORG-thumb_02_L",
      "children" : [ 24, 27 ],
      "translation" : [ 2.17443e-07, 5.57609e-09, -0.0437099 ],
      "rotation" : [ -0.163198, 0.0628013, -0.0071052, -0.984567 ]
    },
    {
      "name" : "ORG-thumb_03_L",
      "children" : [ 25 ],
      "translation" : [ 3.13689e-08, -4.20847e-08, -0.0350209 ],
      "rotation" : [ -0.018915, 0.0400733, -0.000176115, -0.999018 ]
    },
    {
      "name" : "DEF-thumb_03_L",
      "children" : [ 26 ],
      "translation" : [ -5.19214e-08, -1.26114e-08, -1.86251e-07 ],
      "rotation" : [ 1.10304e-09, -1.0024e-07, -1.40164e-08, -1 ]
    },
    {
      "name" : "DEF-thumb_03_L_end",
      "translation" : [ -0.574006, -0.119669, 0.404809 ],
      "rotation" : [ 0.591802, 0.156635, 0.674212, -0.413127 ]
    },
    {
      "name" : "DEF-thumb_02_L",
      "children" : [ 28 ],
      "translation" : [ 2.19184e-09, -4.94321e-09, 1.23705e-07 ],
      "rotation" : [ 1.00886e-08, -4.5596e-09, 2.27852e-08, -1 ]
    },
    {
      "name" : "DEF-thumb_02_L_end",
      "translation" : [ -0.590306, -0.119212, 0.324886 ],
      "rotation" : [ -0.766159, -0.122468, -0.562446, 0.285756 ]
    },
    {
      "name" : "DEF-thumb_01_L_02",
      "children" : [ 30 ],
      "translation" : [ 1.50938e-07, -4.54223e-08, -0.0218548 ],
      "rotation" : [ -3.65995e-07, 7.24418e-07, 1.31828e-06, -1 ]
    },
    {
      "name" : "DEF-thumb_01_L_02_end",
      "translation" : [ -0.593221, -0.192499, 0.173835 ],
      "rotation" : [ -0.864376, 0.0223173, -0.483098, 0.137741 ]
    },
    {
      "name" : "DEF-palm_01_L",
      "children" : [ 32 ],
      "translation" : [ -1.75309e-08, 9.97715e-08, 5.37321e-08 ],
      "rotation" : [ -7.17651e-10, 5.27816e-09, 5.49951e-09, -1 ]
    },
    {
      "name" : "DEF-palm_01_L_end",
      "translation" : [ -0.16595, 0.480911, 0.377774 ],
      "rotation" : [ -0.264434, -0.698263, -0.101551, -0.657412 ]
    },
    {
      "name" : "DEF-f_index_01_L_01",
      "children" : [ 34 ],
      "translation" : [ 6.63899e-09, -3.3871e-08, -0.0742085 ],
      "rotation" : [ -0.270304, 0.00148805, 0.0251905, -0.962444 ]
    },
    {
      "name" : "DEF-f_index_01_L_01_end",
      "translation" : [ -0.21383, 0.650354, 0.136308 ],
      "rotation" : [ -0.169765, -0.651905, 0.242304, -0.698204 ]
    },
    {
      "name" : "DEF-thumb_01_L_01",
      "children" : [ 36 ],
      "translation" : [ -0.0262321, 0.0260588, 0.00702459 ],
      "rotation" : [ -0.038224, -0.268519, 0.706547, -0.653626 ]
    },
    {
      "name" : "DEF-thumb_01_L_01_end",
      "translation" : [ -0.574836, -0.187763, 0.141152 ],
      "rotation" : [ -0.727486, 0.467397, -0.341568, 0.368288 ]
    },
    {
      "name" : "ORG-palm_02_L",
      "children" : [ 38, 47, 49 ],
      "translation" : [ -0.00291241, -0.0103607, -0.0350216 ],
      "rotation" : [ -0.0116427, -0.0543434, -0.00464046, -0.998444 ]
    },
    {
      "name" : "ORG-f_middle_01_L",
      "children" : [ 39, 45 ],
      "translation" : [ 8.25585e-09, -4.30466e-07, -0.0714869 ],
      "rotation" : [ -0.21952, -0.0189222, 0.0257485, -0.975085 ]
    },
    {
      "name" : "ORG-f_middle_02_L",
      "children" : [ 40, 43 ],
      "translation" : [ 2.99154e-08, -3.40655e-07, -0.0518729 ],
      "rotation" : [ -0.119221, 0.00198531, -0.0380991, -0.992135 ]
    },
    {
      "name" : "ORG-f_middle_03_L",
      "children" : [ 41 ],
      "translation" : [ 9.50283e-09, -6.72901e-08, -0.0337116 ],
      "rotation" : [ -0.059886, 0.0151752, -0.0215849, -0.997856 ]
    },
    {
      "name" : "DEF-f_middle_03_L",
      "children" : [ 42 ],
      "translation" : [ -9.08009e-09, 4.62248e-08, 6.24457e-08 ],
      "rotation" : [ -9.58408e-08, 1.53362e-08, -2.66468e-09, -1 ]
    },
    {
      "name" : "DEF-f_middle_03_L_end",
      "translation" : [ -0.14199, 0.776251, -0.0166616 ],
      "rotation" : [ -0.262697, -0.434302, 0.536006, -0.674588 ]
    },
    {
      "name" : "DEF-f_middle_02_L",
      "children" : [ 44 ],
      "translation" : [ -5.30094e-09, 1.64552e-07, 1.95676e-07 ],
      "rotation" : [ -6.45074e-08, -2.17935e-08, -1.39463e-08, -1 ]
    },
    {
      "name" : "DEF-f_middle_02_L_end",
      "translation" : [ -0.1684, 0.745681, 0.0467066 ],
      "rotation" : [ -0.257681, -0.506032, 0.47166, -0.674588 ]
    },
    {
      "name" : "DEF-f_middle_01_L_02",
      "children" : [ 46 ],
      "translation" : [ 8.08236e-09, -3.78113e-07, -0.0259363 ],
      "rotation" : [ -6.95119e-07, -8.81123e-08, -7.17587e-07, -1 ]
    },
    {
      "name" : "DEF-f_middle_01_L_02_end",
      "translation" : [ -0.207439, 0.669953, 0.198782 ],
      "rotation" : [ -0.216008, -0.621187, 0.335259, -0.674588 ]
    },
    {
      "name" : "DEF-palm_02_L",
      "children" : [ 48 ],
      "translation" : [ -1.60996e-08, -6.39682e-08, 9.53859e-08 ],
      "rotation" : [ -1.02826e-08, -8.13874e-10, 3.1625e-09, -1 ]
    },
    {
      "name" : "DEF-palm_02_L_end",
      "translation" : [ -0.129469, 0.501382, 0.369629 ],
      "rotation" : [ -0.29424, -0.695701, -0.0527144, -0.65318 ]
    },
    {
      "name" : "DEF-f_middle_01_L_01",
      "children" : [ 50 ],
      "translation" : [ -2.24279e-10, -6.72933e-07, -0.071487 ],
      "rotation" : [ -0.219519, -0.0189223, 0.0257492, -0.975085 ]
    },
    {
      "name" : "DEF-f_middle_01_L_01_end",
      "translation" : [ -0.189461, 0.651591, 0.176345 ],
      "rotation" : [ -0.261158, -0.603596, 0.284682, -0.697441 ]
    },
    {
      "name" : "ORG-palm_03_L",
      "children" : [ 52, 61, 63 ],
      "translation" : [ 0.0133513, -0.00887395, -0.0341662 ],
      "rotation" : [ -0.00638398, 0.0259253, -0.0224674, -0.999391 ]
    },
    {
      "name" : "ORG-f_ring_01_L",
      "children" : [ 53, 59 ],
      "translation" : [ -1.31922e-08, 3.30366e-07, -0.0752537 ],
      "rotation" : [ -0.2858, -0.0269329, 0.0192376, -0.957717 ]
    },
    {
      "name" : "ORG-f_ring_02_L",
      "children" : [ 54, 57 ],
      "translation" : [ 2.98315e-08, 4.34515e-07, -0.0469267 ],
      "rotation" : [ -0.0766478, -0.00741023, -0.0175489, -0.996876 ]
    },
    {
      "name" : "ORG-f_ring_03_L",
      "children" : [ 55 ],
      "translation" : [ 3.03014e-09, 3.09774e-08, -0.033298 ],
      "rotation" : [ -0.159514, -0.021674, -0.0483601, -0.985772 ]
    },
    {
      "name" : "DEF-f_ring_03_L",
      "children" : [ 56 ],
      "translation" : [ -2.25045e-09, 6.28874e-08, -6.4672e-08 ],
      "rotation" : [ 5.41412e-08, 3.94187e-09, -4.9604e-10, -1 ]
    },
    {
      "name" : "DEF-f_ring_03_L_end",
      "translation" : [ -0.0577326, 0.740478, -0.225048 ],
      "rotation" : [ -0.303395, -0.33756, 0.50294, -0.735565 ]
    },
    {
      "name" : "DEF-f_ring_02_L",
      "children" : [ 58 ],
      "translation" : [ -1.3851e-08, -2.41935e-07, 1.01227e-08 ],
      "rotation" : [ 4.86535e-09, 1.99994e-09, 1.12884e-08, -1 ]
    },
    {
      "name" : "DEF-f_ring_02_L_end",
      "translation" : [ -0.130266, 0.746128, -0.00478844 ],
      "rotation" : [ -0.242591, -0.506943, 0.378293, -0.735563 ]
    },
    {
      "name" : "DEF-f_ring_01_L_02",
      "children" : [ 60 ],
      "translation" : [ 2.5292e-08, 8.02184e-08, -0.0234634 ],
      "rotation" : [ 1.0121e-06, -2.00347e-08, 1.02194e-06, -1 ]
    },
    {
      "name" : "DEF-f_ring_01_L_02_end",
      "translation" : [ -0.135758, 0.707384, 0.0957114 ],
      "rotation" : [ -0.218644, -0.567151, 0.299134, -0.735563 ]
    },
    {
      "name" : "DEF-palm_03_L",
      "children" : [ 62 ],
      "translation" : [ -1.75854e-08, -1.18903e-07, -4.0448e-08 ],
      "rotation" : [ -3.43416e-08, -1.52713e-08, -4.50753e-09, -1 ]
    },
    {
      "name" : "DEF-palm_03_L_end",
      "translation" : [ -0.063751, 0.521237, 0.37131 ],
      "rotation" : [ -0.371293, -0.682719, 0.0338293, -0.628405 ]
    },
    {
      "name" : "DEF-f_ring_01_L_01",
      "children" : [ 64 ],
      "translation" : [ -1.23422e-08, 3.40552e-07, -0.0752537 ],
      "rotation" : [ -0.285801, -0.0269326, 0.0192366, -0.957717 ]
    },
    {
      "name" : "DEF-f_ring_01_L_01_end",
      "translation" : [ -0.119248, 0.691877, 0.0783689 ],
      "rotation" : [ -0.207551, -0.571303, 0.313414, -0.729593 ]
    },
    {
      "name" : "ORG-palm_04_L",
      "children" : [ 66, 75, 77 ],
      "translation" : [ 0.0289535, -0.00585571, -0.0309692 ],
      "rotation" : [ -0.0380314, 0.104083, -0.0038789, -0.993834 ]
    },
    {
      "name" : "ORG-f_pinky_01_L",
      "children" : [ 67, 73 ],
      "translation" : [ 1.54143e-08, 1.54006e-07, -0.0800847 ],
      "rotation" : [ -0.342622, -0.0730792, -0.0317463, -0.936088 ]
    },
    {
      "name" : "ORG-f_pinky_02_L",
      "children" : [ 68, 71 ],
      "translation" : [ -4.21842e-08, -1.99653e-08, -0.0291885 ],
      "rotation" : [ -0.0384548, -0.0832377, -0.0175014, -0.995634 ]
    },
    {
      "name" : "ORG-f_pinky_03_L",
      "children" : [ 69 ],
      "translation" : [ 3.75124e-08, -7.94214e-08, -0.0284664 ],
      "rotation" : [ -0.0987433, -0.0462172, -0.0344643, -0.993441 ]
    },
    {
      "name" : "DEF-f_pinky_03_L",
      "children" : [ 70 ],
      "translation" : [ 4.33538e-08, -1.38217e-08, -6.25827e-09 ],
      "rotation" : [ -1.17605e-08, 2.17225e-09, 6.84676e-09, -1 ]
    },
    {
      "name" : "DEF-f_pinky_03_L_end",
      "translation" : [ 0.078642, 0.724888, -0.23011 ],
      "rotation" : [ -0.468867, -0.236735, 0.448517, -0.723155 ]
    },
    {
      "name" : "DEF-f_pinky_02_L",
      "children" : [ 72 ],
      "translation" : [ 5.75057e-08, -2.49989e-09, -1.00647e-07 ],
      "rotation" : [ 3.33445e-09, -1.8482e-08, 3.65533e-09, -1 ]
    },
    {
      "name" : "DEF-f_pinky_02_L_end",
      "translation" : [ 0.0127185, 0.743757, -0.110898 ],
      "rotation" : [ -0.407463, -0.35451, 0.430522, -0.723151 ]
    },
    {
      "name" : "DEF-f_pinky_01_L_02",
      "children" : [ 74 ],
      "translation" : [ -3.90647e-08, -1.30567e-07, -0.0145941 ],
      "rotation" : [ -1.4507e-06, 3.35762e-07, -1.54981e-06, -1 ]
    },
    {
      "name" : "DEF-f_pinky_01_L_02_end",
      "translation" : [ -0.019905, 0.723738, -0.0577262 ],
      "rotation" : [ -0.31955, -0.401766, 0.462094, -0.723147 ]
    },
    {
      "name" : "DEF-palm_04_L",
      "children" : [ 76 ],
      "translation" : [ 9.32926e-10, -1.34857e-08, -2.12341e-08 ],
      "rotation" : [ 4.78168e-08, 1.20997e-08, 1.10622e-09, -1 ]
    },
    {
      "name" : "DEF-palm_04_L_end",
      "translation" : [ -0.0272435, 0.569791, 0.328976 ],
      "rotation" : [ -0.422438, -0.663176, 0.212421, -0.58019 ]
    },
    {
      "name" : "DEF-f_pinky_01_L_01",
      "children" : [ 78 ],
      "translation" : [ -8.9275e-09, 2.42371e-07, -0.0800847 ],
      "rotation" : [ -0.342621, -0.0730799, -0.0317451, -0.936089 ]
    },
    {
      "name" : "DEF-f_pinky_01_L_01_end",
      "translation" : [ -0.015739, 0.711575, -0.0654147 ],
      "rotation" : [ -0.313369, -0.406608, 0.473093, -0.715998 ]
    },
    {
      "name" : "DEF-hand_L",
      "children" : [ 80 ],
      "translation" : [ -6.41352e-09, 3.89361e-07, -3.52628e-08 ],
      "rotation" : [ -2.34144e-10, 1.08824e-08, -1.45949e-07, -1 ]
    },
    {
      "name" : "DEF-hand_L_end",
      "translation" : [ -0.0636589, 0.482004, 0.347631 ],
      "rotation" : [ -0.284241, -0.696206, -0.0481327, -0.65741 ]
    },
    {
      "name" : "DEF-forearm_02_L",
      "children" : [ 82 ],
      "translation" : [ -1.34253e-07, 8.56707e-09, -0.163155 ],
      "rotation" : [ -6.48789e-06, 6.32589e-06, 0.70169, -0.712482 ]
    },
    {
      "name" : "DEF-forearm_02_L_end",
      "translation" : [ -0.0156116, 0.443476, 0.194574 ],
      "rotation" : [ -0.597809, -0.462867, 0.33267, -0.563657 ]
    },
    {
      "name" : "MCH-forearm_01_L",
      "children" : [ 84 ],
      "translation" : [ -2.73739e-07, 1.61708e-08, 1.95202e-08 ],
      "rotation" : [ 2.26285e-08, -6.16924e-08, 3.96691e-08, -1 ]
    },
    {
      "name" : "MCH-forearm_smth_01_L",
      "children" : [ 85 ],
      "translation" : [ -0.00350706, 0.0183797, 0.141559 ],
      "rotation" : [ 0.0646477, 0.0114967, -0.0125111, -0.997764 ]
    },
    {
      "name" : "DEF-forearm_01_L",
      "children" : [ 86 ],
      "translation" : [ 5.31857e-07, 1.29817e-09, -0.14279 ],
      "rotation" : [ -0.0646476, -0.0114967, 0.0125111, -0.997764 ]
    },
    {
      "name" : "DEF-forearm_01_L_end",
      "translation" : [ 0.283325, -0.000303441, 0.00805456 ],
      "rotation" : [ -0.382799, 0.651992, 0.24881, -0.605363 ]
    },
    {
      "name" : "DEF-upper_arm_02_L",
      "children" : [ 88 ],
      "translation" : [ 1.30776e-09, -7.49667e-10, -0.14279 ],
      "rotation" : [ -2.58931e-08, 2.32651e-07, -4.82818e-08, -1 ]
    },
    {
      "name" : "DEF-upper_arm_02_L_end",
      "translation" : [ 0.122465, -0.0237008, -0.163963 ],
      "rotation" : [ 0.141458, 0.232835, 0.653557, -0.706145 ]
    },
    {
      "name" : "DEF-shoulder_L",
      "children" : [ 90 ],
      "translation" : [ 8.74161e-09, 2.28119e-07, -9.85564e-09 ],
      "rotation" : [ 3.71481e-09, 4.82561e-11, -9.30014e-08, -1 ]
    },
    {
      "name" : "DEF-shoulder_L_end",
      "translation" : [ 0.112105, -0.12176, -0.125329 ],
      "rotation" : [ -0.028206, 0.00461403, 0.217292, -0.975688 ]
    },
    {
      "name" : "ORG-shoulder_R",
      "children" : [ 92, 172 ],
      "translation" : [ -0.057665, 0.167775, -0.198397 ],
      "rotation" : [ 0.603226, -0.357203, 0.344759, -0.624232 ]
    },
    {
      "name" : "ORG-upper_arm_R",
      "children" : [ 93, 170 ],
      "translation" : [ 0.0182241, -0.0161122, -0.231815 ],
      "rotation" : [ 0.0451372, -0.328747, -0.724158, -0.604552 ]
    },
    {
      "name" : "ORG-forearm_R",
      "children" : [ 94, 164, 166 ],
      "translation" : [ -1.76151e-07, 1.24979e-08, -0.28558 ],
      "rotation" : [ -0.0646477, 0.0114965, -0.012511, -0.997764 ]
    },
    {
      "name" : "ORG-hand_R",
      "children" : [ 95, 120, 134, 148, 162 ],
      "translation" : [ 3.32399e-07, -2.43538e-09, -0.326309 ],
      "rotation" : [ 0.00679623, -0.0387707, -0.701146, -0.71193 ]
    },
    {
      "name" : "ORG-palm_01_R",
      "children" : [ 96, 105, 114, 116, 118 ],
      "translation" : [ 0.0203991, -0.00883902, -0.0309002 ],
      "rotation" : [ -0.00683177, 0.114072, -0.00186145, -0.993447 ]
    },
    {
      "name" : "ORG-f_index_01_R",
      "children" : [ 97, 103 ],
      "translation" : [ 1.95107e-08, -8.12582e-08, -0.0742085 ],
      "rotation" : [ -0.270303, -0.00148798, -0.0251913, -0.962445 ]
    },
    {
      "name" : "ORG-f_index_02_R",
      "children" : [ 98, 101 ],
      "translation" : [ -4.79953e-08, -2.76451e-07, -0.0471604 ],
      "rotation" : [ -0.0778543, 0.00214751, 0.0125796, -0.996883 ]
    },
    {
      "name" : "ORG-f_index_03_R",
      "children" : [ 99 ],
      "translation" : [ -3.33397e-08, 8.72729e-08, -0.0295525 ],
      "rotation" : [ -0.11534, -0.0279196, 0.0228174, -0.992671 ]
    },
    {
      "name" : "DEF-f_index_03_R",
      "children" : [ 100 ],
      "translation" : [ 1.39589e-08, 1.8471e-08, 1.0903e-07 ],
      "rotation" : [ -4.67099e-08, -1.30581e-09, 1.38723e-08, -1 ]
    },
    {
      "name" : "DEF-f_index_03_R_end",
      "translation" : [ 0.0778145, 0.303701, 0.610525 ],
      "rotation" : [ -0.771578, -0.429112, 0.181098, 0.433282 ]
    },
    {
      "name" : "DEF-f_index_02_R",
      "children" : [ 102 ],
      "translation" : [ 2.08393e-08, 5.20882e-08, -4.7731e-08 ],
      "rotation" : [ -4.82453e-08, -6.44321e-09, 5.34169e-09, -1 ]
    },
    {
      "name" : "DEF-f_index_02_R_end",
      "translation" : [ 0.108396, 0.167299, 0.618967 ],
      "rotation" : [ -0.78268, -0.42896, 0.12512, 0.433301 ]
    },
    {
      "name" : "DEF-f_index_01_R_02",
      "children" : [ 104 ],
      "translation" : [ -1.96776e-08, -1.20562e-07, -0.0235802 ],
      "rotation" : [ 7.33485e-07, -1.74133e-07, -8.1256e-07, -1 ]
    },
    {
      "name" : "DEF-f_index_01_R_02_end",
      "translation" : [ 0.0923969, 0.0862219, 0.599367 ],
      "rotation" : [ -0.793819, -0.423147, 0.055177, 0.433306 ]
    },
    {
      "name" : "ORG-thumb_01_R",
      "children" : [ 106, 112 ],
      "translation" : [ 0.026232, 0.0260588, 0.00702456 ],
      "rotation" : [ -0.0382233, 0.268519, -0.706548, -0.653625 ]
    },
    {
      "name" : "ORG-thumb_02_R",
      "children" : [ 107, 110 ],
      "translation" : [ -2.17443e-07, 5.57609e-09, -0.0437099 ],
      "rotation" : [ -0.163198, -0.0628013, 0.0071052, -0.984567 ]
    },
    {
      "name" : "ORG-thumb_03_R",
      "children" : [ 108 ],
      "translation" : [ -3.13689e-08, -4.20847e-08, -0.0350209 ],
      "rotation" : [ -0.018915, -0.0400733, 0.000176115, -0.999018 ]
    },
    {
      "name" : "DEF-thumb_03_R",
      "children" : [ 109 ],
      "translation" : [ 5.19214e-08, -1.26114e-08, -1.86251e-07 ],
      "rotation" : [ 1.10304e-09, 1.0024e-07, 1.40164e-08, -1 ]
    },
    {
      "name" : "DEF-thumb_03_R_end",
      "translation" : [ -0.0964881, -0.103741, 0.520216 ],
      "rotation" : [ -0.124302, -0.692576, -0.310488, -0.639129 ]
    },
    {
      "name" : "DEF-thumb_02_R",
      "children" : [ 111 ],
      "translation" : [ -2.19184e-09, -4.94321e-09, 1.23705e-07 ],
      "rotation" : [ 1.00886e-08, 4.5596e-09, -2.27852e-08, -1 ]
    },
    {
      "name" : "DEF-thumb_02_R_end",
      "translation" : [ -0.033811, -0.117531, 0.485715 ],
      "rotation" : [ 0.0449232, -0.772006, -0.444957, -0.451665 ]
    },
    {
      "name" : "DEF-thumb_01_R_02",
      "children" : [ 113 ],
      "translation" : [ -1.50938e-07, -4.54223e-08, -0.0218548 ],
      "rotation" : [ -3.65995e-07, -7.24418e-07, -1.31828e-06, -1 ]
    },
    {
      "name" : "DEF-thumb_01_R_02_end",
      "translation" : [ 0.0442236, -0.241513, 0.399567 ],
      "rotation" : [ -0.135932, 0.579268, 0.769809, 0.231008 ]
    },
    {
      "name" : "DEF-palm_01_R",
      "children" : [ 115 ],
      "translation" : [ 1.75309e-08, 9.97715e-08, 5.37321e-08 ],
      "rotation" : [ -7.17651e-10, -5.27816e-09, -5.49951e-09, -1 ]
    },
    {
      "name" : "DEF-palm_01_R_end",
      "translation" : [ 0.0743383, -0.181574, 0.453895 ],
      "rotation" : [ -0.685329, -0.51622, -0.212003, 0.467863 ]
    },
    {
      "name" : "DEF-f_index_01_R_01",
      "children" : [ 117 ],
      "translation" : [ -6.63899e-09, -3.3871e-08, -0.0742085 ],
      "rotation" : [ -0.270304, -0.00148805, -0.0251905, -0.962444 ]
    },
    {
      "name" : "DEF-f_index_01_R_01_end",
      "translation" : [ 0.0816848, 0.101341, 0.561201 ],
      "rotation" : [ -0.746094, -0.502509, 0.0103756, 0.436716 ]
    },
    {
      "name" : "DEF-thumb_01_R_01",
      "children" : [ 119 ],
      "translation" : [ 0.0262321, 0.0260588, 0.00702459 ],
      "rotation" : [ -0.038224, 0.268519, -0.706547, -0.653626 ]
    },
    {
      "name" : "DEF-thumb_01_R_01_end",
      "translation" : [ 0.0454982, -0.220647, 0.384091 ],
      "rotation" : [ 0.416669, -0.42475, -0.538368, -0.59677 ]
    },
    {
      "name" : "ORG-palm_02_R",
      "children" : [ 121, 130, 132 ],
      "translation" : [ 0.00291241, -0.0103607, -0.0350216 ],
      "rotation" : [ -0.0116427, 0.0543434, 0.00464046, -0.998444 ]
    },
    {
      "name" : "ORG-f_middle_01_R",
      "children" : [ 122, 128 ],
      "translation" : [ -8.25585e-09, -4.30466e-07, -0.0714869 ],
      "rotation" : [ -0.21952, 0.0189222, -0.0257485, -0.975085 ]
    },
    {
      "name" : "ORG-f_middle_02_R",
      "children" : [ 123, 126 ],
      "translation" : [ -2.99154e-08, -3.40655e-07, -0.0518729 ],
      "rotation" : [ -0.119221, -0.00198531, 0.0380991, -0.992135 ]
    },
    {
      "name" : "ORG-f_middle_03_R",
      "children" : [ 124 ],
      "translation" : [ -9.50283e-09, -6.72901e-08, -0.0337116 ],
      "rotation" : [ -0.059886, -0.0151752, 0.0215849, -0.997856 ]
    },
    {
      "name" : "DEF-f_middle_03_R",
      "children" : [ 125 ],
      "translation" : [ 9.08009e-09, 4.62248e-08, 6.24457e-08 ],
      "rotation" : [ -9.58408e-08, -1.53362e-08, 2.66468e-09, -1 ]
    },
    {
      "name" : "DEF-f_middle_03_R_end",
      "translation" : [ 0.0840674, 0.223263, 0.641185 ],
      "rotation" : [ -0.609473, -0.606114, 0.18244, 0.477373 ]
    },
    {
      "name" : "DEF-f_middle_02_R",
      "children" : [ 127 ],
      "translation" : [ 5.30094e-09, 1.64552e-07, 1.95676e-07 ],
      "rotation" : [ -6.45074e-08, 2.17935e-08, 1.39463e-08, -1 ]
    },
    {
      "name" : "DEF-f_middle_02_R_end",
      "translation" : [ 0.0927923, 0.151589, 0.616719 ],
      "rotation" : [ -0.630806, -0.597975, 0.129013, 0.477353 ]
    },
    {
      "name" : "DEF-f_middle_01_R_02",
      "children" : [ 129 ],
      "translation" : [ -8.08236e-09, -3.78113e-07, -0.0259363 ],
      "rotation" : [ -6.95119e-07, 8.81123e-08, 7.17587e-07, -1 ]
    },
    {
      "name" : "DEF-f_middle_01_R_02_end",
      "translation" : [ 0.0774638, 0.0144441, 0.595019 ],
      "rotation" : [ -0.675152, -0.562384, -0.00785232, 0.477317 ]
    },
    {
      "name" : "DEF-palm_02_R",
      "children" : [ 131 ],
      "translation" : [ 1.60996e-08, -6.39682e-08, 9.53859e-08 ],
      "rotation" : [ -1.02826e-08, 8.13874e-10, -3.1625e-09, -1 ]
    },
    {
      "name" : "DEF-palm_02_R_end",
      "translation" : [ 0.0333971, -0.186351, 0.439904 ],
      "rotation" : [ -0.640688, -0.532349, -0.279874, 0.477278 ]
    },
    {
      "name" : "DEF-f_middle_01_R_01",
      "children" : [ 133 ],
      "translation" : [ 2.24279e-10, -6.72933e-07, -0.071487 ],
      "rotation" : [ -0.219519, 0.0189223, -0.0257492, -0.975085 ]
    },
    {
      "name" : "DEF-f_middle_01_R_01_end",
      "translation" : [ 0.0638248, 0.031387, 0.554957 ],
      "rotation" : [ -0.675073, -0.562387, -0.0077497, 0.477428 ]
    },
    {
      "name" : "ORG-palm_03_R",
      "children" : [ 135, 144, 146 ],
      "translation" : [ -0.0133513, -0.00887395, -0.0341662 ],
      "rotation" : [ -0.00638398, -0.0259253, 0.0224674, -0.999391 ]
    },
    {
      "name" : "ORG-f_ring_01_R",
      "children" : [ 136, 142 ],
      "translation" : [ 1.31922e-08, 3.30366e-07, -0.0752537 ],
      "rotation" : [ -0.2858, 0.0269329, -0.0192376, -0.957717 ]
    },
    {
      "name" : "ORG-f_ring_02_R",
      "children" : [ 137, 140 ],
      "translation" : [ -2.98315e-08, 4.34515e-07, -0.0469267 ],
      "rotation" : [ -0.0766478, 0.00741023, 0.0175489, -0.996876 ]
    },
    {
      "name" : "ORG-f_ring_03_R",
      "children" : [ 138 ],
      "translation" : [ -3.03014e-09, 3.09774e-08, -0.033298 ],
      "rotation" : [ -0.159514, 0.021674, 0.0483601, -0.985772 ]
    },
    {
      "name" : "DEF-f_ring_03_R",
      "children" : [ 139 ],
      "translation" : [ 2.25045e-09, 6.28874e-08, -6.4672e-08 ],
      "rotation" : [ 5.41412e-08, -3.94187e-09, 4.9604e-10, -1 ]
    },
    {
      "name" : "DEF-f_ring_03_R_end",
      "translation" : [ 0.0823063, 0.341146, 0.562732 ],
      "rotation" : [ -0.489825, -0.729449, 0.260412, 0.400202 ]
    },
    {
      "name" : "DEF-f_ring_02_R",
      "children" : [ 141 ],
      "translation" : [ 1.3851e-08, -2.41935e-07, 1.01227e-08 ],
      "rotation" : [ 4.86535e-09, -1.99994e-09, -1.12884e-08, -1 ]
    },
    {
      "name" : "DEF-f_ring_02_R_end",
      "translation" : [ 0.0637202, 0.143173, 0.60012 ],
      "rotation" : [ -0.566757, -0.720169, 0.00253174, 0.400171 ]
    },
    {
      "name" : "DEF-f_ring_01_R_02",
      "children" : [ 143 ],
      "translation" : [ -2.5292e-08, 8.02184e-08, -0.0234634 ],
      "rotation" : [ 1.0121e-06, 2.00347e-08, -1.02194e-06, -1 ]
    },
    {
      "name" : "DEF-f_ring_01_R_02_end",
      "translation" : [ 0.0396775, 0.0664938, 0.571915 ],
      "rotation" : [ -0.590782, -0.69117, -0.114616, 0.400155 ]
    },
    {
      "name" : "DEF-palm_03_R",
      "children" : [ 145 ],
      "translation" : [ 1.75854e-08, -1.18903e-07, -4.0448e-08 ],
      "rotation" : [ -3.43416e-08, 1.52713e-08, 4.50753e-09, -1 ]
    },
    {
      "name" : "DEF-palm_03_R_end",
      "translation" : [ -0.0059979, -0.203211, 0.410962 ],
      "rotation" : [ 0.531741, 0.577383, 0.345354, -0.514402 ]
    },
    {
      "name" : "DEF-f_ring_01_R_01",
      "children" : [ 147 ],
      "translation" : [ 1.23422e-08, 3.40552e-07, -0.0752537 ],
      "rotation" : [ -0.285801, 0.0269326, -0.0192366, -0.957717 ]
    },
    {
      "name" : "DEF-f_ring_01_R_01_end",
      "translation" : [ 0.029881, 0.0813067, 0.533115 ],
      "rotation" : [ -0.650903, -0.634861, -0.0779343, 0.408904 ]
    },
    {
      "name" : "ORG-palm_04_R",
      "children" : [ 149, 158, 160 ],
      "translation" : [ -0.0289535, -0.00585571, -0.0309692 ],
      "rotation" : [ -0.0380314, -0.104083, 0.0038789, -0.993834 ]
    },
    {
      "name" : "ORG-f_pinky_01_R",
      "children" : [ 150, 156 ],
      "translation" : [ -1.54143e-08, 1.54006e-07, -0.0800847 ],
      "rotation" : [ -0.342622, 0.0730792, 0.0317463, -0.936088 ]
    },
    {
      "name" : "ORG-f_pinky_02_R",
      "children" : [ 151, 154 ],
      "translation" : [ 4.21842e-08, -1.99653e-08, -0.0291885 ],
      "rotation" : [ -0.0384548, 0.0832377, 0.0175014, -0.995634 ]
    },
    {
      "name" : "ORG-f_pinky_03_R",
      "children" : [ 152 ],
      "translation" : [ -3.75124e-08, -7.94214e-08, -0.0284664 ],
      "rotation" : [ -0.0987433, 0.0462172, 0.0344643, -0.993441 ]
    },
    {
      "name" : "DEF-f_pinky_03_R",
      "children" : [ 153 ],
      "translation" : [ -4.33538e-08, -1.38217e-08, -6.25827e-09 ],
      "rotation" : [ -1.17605e-08, -2.17225e-09, -6.84676e-09, -1 ]
    },
    {
      "name" : "DEF-f_pinky_03_R_end",
      "translation" : [ 0.210436, 0.291449, 0.464614 ],
      "rotation" : [ 0.399377, 0.663006, -0.325633, -0.543033 ]
    },
    {
      "name" : "DEF-f_pinky_02_R",
      "children" : [ 155 ],
      "translation" : [ -5.75057e-08, -2.49989e-09, -1.00647e-07 ],
      "rotation" : [ 3.33445e-09, 1.8482e-08, -3.65533e-09, -1 ]
    },
    {
      "name" : "DEF-f_pinky_02_R_end",
      "translation" : [ 0.164878, 0.180975, 0.496567 ],
      "rotation" : [ 0.468214, 0.680365, -0.151693, -0.543018 ]
    },
    {
      "name" : "DEF-f_pinky_01_R_02",
      "children" : [ 157 ],
      "translation" : [ 3.90647e-08, -1.30567e-07, -0.0145941 ],
      "rotation" : [ -1.4507e-06, -3.35762e-07, 1.54981e-06, -1 ]
    },
    {
      "name" : "DEF-f_pinky_01_R_02_end",
      "translation" : [ 0.0619344, 0.147318, 0.501473 ],
      "rotation" : [ 0.506148, 0.669809, -0.0180461, -0.542995 ]
    },
    {
      "name" : "DEF-palm_04_R",
      "children" : [ 159 ],
      "translation" : [ -9.32926e-10, -1.34857e-08, -2.12341e-08 ],
      "rotation" : [ 4.78168e-08, -1.20997e-08, -1.10622e-09, -1 ]
    },
    {
      "name" : "DEF-palm_04_R_end",
      "translation" : [ -0.0341213, -0.182693, 0.38797 ],
      "rotation" : [ 0.414258, 0.633703, 0.318944, -0.570163 ]
    },
    {
      "name" : "DEF-f_pinky_01_R_01",
      "children" : [ 161 ],
      "translation" : [ 8.9275e-09, 2.42371e-07, -0.0800847 ],
      "rotation" : [ -0.342621, 0.0730799, 0.0317451, -0.936089 ]
    },
    {
      "name" : "DEF-f_pinky_01_R_01_end",
      "translation" : [ 0.0510558, 0.154984, 0.480899 ],
      "rotation" : [ 0.51633, 0.661989, -0.0263425, -0.542659 ]
    },
    {
      "name" : "DEF-hand_R",
      "children" : [ 163 ],
      "translation" : [ 6.41352e-09, 3.89361e-07, -3.52628e-08 ],
      "rotation" : [ -2.34144e-10, -1.08824e-08, 1.45949e-07, -1 ]
    },
    {
      "name" : "DEF-hand_R_end",
      "translation" : [ -0.00960867, -0.180576, 0.380999 ],
      "rotation" : [ -0.616724, -0.514676, -0.368605, 0.467857 ]
    },
    {
      "name" : "DEF-forearm_02_R",
      "children" : [ 165 ],
      "translation" : [ 1.34253e-07, 8.56707e-09, -0.163155 ],
      "rotation" : [ -6.48789e-06, -6.32589e-06, -0.70169, -0.712482 ]
    },
    {
      "name" : "DEF-forearm_02_R_end",
      "translation" : [ 0.0115035, -0.124911, 0.190861 ],
      "rotation" : [ 0.0902821, 0.237678, 0.422815, -0.869819 ]
    },
    {
      "name" : "MCH-forearm_01_R",
      "children" : [ 167 ],
      "translation" : [ 2.73739e-07, 1.61708e-08, 1.95202e-08 ],
      "rotation" : [ 2.26285e-08, 6.16924e-08, -3.96691e-08, -1 ]
    },
    {
      "name" : "MCH-forearm_smth_01_R",
      "children" : [ 168 ],
      "translation" : [ 0.00350706, 0.0183797, 0.141559 ],
      "rotation" : [ 0.0646477, -0.0114967, 0.0125111, -0.997764 ]
    },
    {
      "name" : "DEF-forearm_01_R",
      "children" : [ 169 ],
      "translation" : [ -5.31857e-07, 1.29817e-09, -0.14279 ],
      "rotation" : [ -0.0646476, 0.0114967, -0.0125111, -0.997764 ]
    },
    {
      "name" : "DEF-forearm_01_R_end",
      "translation" : [ 0.0658357, -0.0445004, 0.169749 ],
      "rotation" : [ -0.162733, 0.195321, -0.04388, -0.966148 ]
    },
    {
      "name" : "DEF-upper_arm_02_R",
      "children" : [ 171 ],
      "translation" : [ -1.30776e-09, -7.49667e-10, -0.14279 ],
      "rotation" : [ -2.58931e-08, -2.32651e-07, 4.82818e-08, -1 ]
    },
    {
      "name" : "DEF-upper_arm_02_R_end",
      "translation" : [ 0.00255216, -0.137891, 0.153787 ],
      "rotation" : [ 0.619659, 0.158428, 0.154595, -0.75301 ]
    },
    {
      "name" : "DEF-shoulder_R",
      "children" : [ 173 ],
      "translation" : [ -8.74161e-09, 2.28119e-07, -9.85564e-09 ],
      "rotation" : [ 3.71481e-09, -4.82561e-11, 9.30014e-08, -1 ]
    },
    {
      "name" : "DEF-shoulder_R_end",
      "translation" : [ -0.10356, -0.033485, -0.0572312 ],
      "rotation" : [ -0.30935, 0.016312, -0.206089, -0.928205 ]
    },
    {
      "name" : "DEF-neck",
      "children" : [ 175 ],
      "translation" : [ -7.99232e-10, -0.00780329, -0.189695 ],
      "rotation" : [ -0.306029, -3.25108e-08, 1.09655e-07, -0.952022 ]
    },
    {
      "name" : "DEF-neck_end",
      "translation" : [ 0.0281353, 0.166511, -0.10809 ],
      "rotation" : [ -0.214928, 0.0522278, -0.0449584, -0.974195 ]
    },
    {
      "name" : "DEF-chest",
      "children" : [ 177 ],
      "translation" : [ 0, 2.83678e-08, -0.149508 ],
      "rotation" : [ 0.0702504, -0, -0, -0.997529 ]
    },
    {
      "name" : "DEF-chest_end",
      "translation" : [ 0.0225194, 0.176132, -0.231524 ],
      "rotation" : [ -0.243902, 0.00575596, 0.000826715, -0.969783 ]
    },
    {
      "name" : "ORG-thigh_L",
      "children" : [ 179, 192 ],
      "translation" : [ 0.107885, 0.0425239, 0.00606369 ],
      "rotation" : [ -0.986748, -0.000510997, -0.000633445, -0.162256 ]
    },
    {
      "name" : "ORG-shin_L",
      "children" : [ 180, 186, 188 ],
      "translation" : [ -8.9846e-09, -1.4325e-08, -0.472027 ],
      "rotation" : [ -0.12678, -0.0184022, -0.00385847, -0.991753 ]
    },
    {
      "name" : "ORG-foot_L",
      "children" : [ 181, 184 ],
      "translation" : [ 1.1051e-08, -1.49363e-08, -0.389706 ],
      "rotation" : [ 0.546168, 0.0156821, 0.0113344, -0.837452 ]
    },
    {
      "name" : "ORG-toe_L",
      "children" : [ 182 ],
      "translation" : [ -7.94957e-09, -1.73152e-07, -0.121537 ],
      "rotation" : [ 1.18767e-08, 0.275683, 0.961249, -4.01447e-08 ]
    },
    {
      "name" : "DEF-toe_L",
      "children" : [ 183 ],
      "translation" : [ -8.1313e-09, 1.23359e-08, 2.61753e-08 ],
      "rotation" : [ 6.05365e-14, -6.10625e-16, 4.47479e-08, -1 ]
    },
    {
      "name" : "DEF-toe_L_end",
      "translation" : [ -0.0984629, -0.0048077, -0.130961 ],
      "rotation" : [ 0.00651595, -0.167931, -0.00154967, -0.985776 ]
    },
    {
      "name" : "DEF-foot_L",
      "children" : [ 185 ],
      "translation" : [ -1.04531e-08, 1.05939e-08, -5.55044e-09 ],
      "rotation" : [ 1.84574e-08, 6.83327e-10, -8.08859e-10, -1 ]
    },
    {
      "name" : "DEF-foot_L_end",
      "translation" : [ 0.077781, -0.0348508, -0.184796 ],
      "rotation" : [ -0.00875652, 0.141378, -0.0906391, -0.985759 ]
    },
    {
      "name" : "DEF-shin_02_L",
      "children" : [ 187 ],
      "translation" : [ 1.09345e-08, -2.40511e-08, -0.194853 ],
      "rotation" : [ -1.4471e-08, 8.10412e-09, 0.0135326, -0.999908 ]
    },
    {
      "name" : "DEF-shin_02_L_end",
      "translation" : [ 0.0452519, -0.0767659, -0.183663 ],
      "rotation" : [ -0.0789431, -0.0226137, -0.176089, -0.980943 ]
    },
    {
      "name" : "MCH-shin_01_L",
      "children" : [ 189 ],
      "translation" : [ 1.64548e-08, -1.98004e-08, -8.6182e-08 ],
      "rotation" : [ -1.92208e-08, -4.97133e-09, -8.03697e-09, -1 ]
    },
    {
      "name" : "MCH-shin_smth_01_L",
      "children" : [ 190 ],
      "translation" : [ -0.00838382, 0.0593834, 0.228267 ],
      "rotation" : [ 0.12678, 0.0184022, 0.00385847, -0.991753 ]
    },
    {
      "name" : "DEF-shin_01_L",
      "children" : [ 191 ],
      "translation" : [ 6.15822e-09, 8.30583e-09, -0.236013 ],
      "rotation" : [ -0.12678, -0.0184023, -0.00385846, -0.991753 ]
    },
    {
      "name" : "DEF-shin_01_L_end",
      "translation" : [ 0.055429, -0.10594, -0.183456 ],
      "rotation" : [ -0.0794162, -0.0203081, -0.174538, -0.981232 ]
    },
    {
      "name" : "DEF-thigh_02_L",
      "children" : [ 193 ],
      "translation" : [ -2.95769e-09, -1.9177e-08, -0.236013 ],
      "rotation" : [ 4.02039e-09, 1.55708e-10, 1.26195e-09, -1 ]
    },
    {
      "name" : "DEF-thigh_02_L_end",
      "translation" : [ 0.0700777, -0.134743, -0.260243 ],
      "rotation" : [ 0.121879, 0.0622479, -0.169608, -0.975963 ]
    },
    {
      "name" : "ORG-thigh_R",
      "children" : [ 195, 208 ],
      "translation" : [ -0.107885, 0.0425239, 0.00606369 ],
      "rotation" : [ -0.986748, 0.000510997, 0.000633445, -0.162256 ]
    },
    {
      "name" : "ORG-shin_R",
      "children" : [ 196, 202, 204 ],
      "translation" : [ 8.9846e-09, -1.4325e-08, -0.472027 ],
      "rotation" : [ -0.12678, 0.0184022, 0.00385847, -0.991753 ]
    },
    {
      "name" : "ORG-foot_R",
      "children" : [ 197, 200 ],
      "translation" : [ -1.1051e-08, -1.49363e-08, -0.389706 ],
      "rotation" : [ 0.546168, -0.0156821, -0.0113344, -0.837452 ]
    },
    {
      "name" : "ORG-toe_R",
      "children" : [ 198 ],
      "translation" : [ 7.94957e-09, -1.73152e-07, -0.121537 ],
      "rotation" : [ -1.18767e-08, 0.275683, 0.961249, 4.01447e-08 ]
    },
    {
      "name" : "DEF-toe_R",
      "children" : [ 199 ],
      "translation" : [ 8.1313e-09, 1.23359e-08, 2.61753e-08 ],
      "rotation" : [ 6.05365e-14, 6.10625e-16, -4.47479e-08, -1 ]
    },
    {
      "name" : "DEF-toe_R_end",
      "translation" : [ 0.000113721, -0.00434404, -0.0661713 ],
      "rotation" : [ 0.00602644, -0.000519086, -7.35105e-05, -0.999982 ]
    },
    {
      "name" : "DEF-foot_R",
      "children" : [ 201 ],
      "translation" : [ 1.04531e-08, 1.05939e-08, -5.55044e-09 ],
      "rotation" : [ 1.84574e-08, -6.83327e-10, 8.08859e-10, -1 ]
    },
    {
      "name" : "DEF-foot_R_end",
      "translation" : [ -0.000164664, 0.00106495, -0.12661 ],
      "rotation" : [ -0.00818526, 0.000400431, -0.000338206, -0.999966 ]
    },
    {
      "name" : "DEF-shin_02_R",
      "children" : [ 203 ],
      "translation" : [ -1.09345e-08, -2.40511e-08, -0.194853 ],
      "rotation" : [ -1.4471e-08, -8.10412e-09, -0.0135326, -0.999908 ]
    },
    {
      "name" : "DEF-shin_02_R_end",
      "translation" : [ -0.000452729, -0.0044081, -0.195765 ],
      "rotation" : [ -0.0877716, 0.00689062, -0.00173095, -0.996115 ]
    },
    {
      "name" : "MCH-shin_01_R",
      "children" : [ 205 ],
      "translation" : [ -1.64548e-08, -1.98004e-08, -8.6182e-08 ],
      "rotation" : [ -1.92208e-08, 4.97133e-09, 8.03697e-09, -1 ]
    },
    {
      "name" : "MCH-shin_smth_01_R",
      "children" : [ 206 ],
      "translation" : [ 0.00838382, 0.0593834, 0.228267 ],
      "rotation" : [ 0.12678, -0.0184022, -0.00385847, -0.991753 ]
    },
    {
      "name" : "DEF-shin_01_R",
      "children" : [ 207 ],
      "translation" : [ -6.15822e-09, 8.30583e-09, -0.236013 ],
      "rotation" : [ -0.12678, 0.0184023, 0.00385846, -0.991753 ]
    },
    {
      "name" : "DEF-shin_01_R_end",
      "translation" : [ -0.00139942, -0.0374292, -0.195981 ],
      "rotation" : [ -0.0878995, 0.00436575, -0.00289481, -0.996116 ]
    },
    {
      "name" : "DEF-thigh_02_R",
      "children" : [ 209 ],
      "translation" : [ 2.95769e-09, -1.9177e-08, -0.236013 ],
      "rotation" : [ 4.02039e-09, -1.55708e-10, -1.26195e-09, -1 ]
    },
    {
      "name" : "DEF-thigh_02_R_end",
      "translation" : [ -0.00313189, -0.071228, -0.254564 ],
      "rotation" : [ 0.0397811, 0.0041812, 0.000391674, -0.9992 ]
    },
    {
      "name" : "DEF-spine",
      "children" : [ 211 ],
      "translation" : [ 0, -4.41211e-08, -0.167296 ],
      "rotation" : [ 0.0546678, -0, -0, -0.998505 ]
    },
    {
      "name" : "DEF-spine_end",
      "translation" : [ 0.0190757, 0.0392601, -0.124013 ],
      "rotation" : [ -0.102743, 0.029066, -0.000283812, -0.994283 ]
    },
    {
      "name" : "MCH-shoulder_rh_ns_ch_R",
      "children" : [ 213 ],
      "translation" : [ -0.248214, 1.44964, 0.0271488 ],
      "rotation" : [ 0.000230182, -0.49644, -0.000173614, -0.868071 ]
    },
    {
      "name" : "DEF-upper_arm_01_R",
      "children" : [ 214 ],
      "translation" : [ -1.80315e-08, 1.84217e-07, -5.46304e-08 ],
      "rotation" : [ 0.0451367, -0.328746, -0.724158, -0.604552 ]
    },
    {
      "name" : "DEF-upper_arm_01_R_end",
      "translation" : [ -0.00415865, 0.00234872, 0.0369615 ],
      "rotation" : [ 0.638926, -0.0291588, -0.0717126, -0.765363 ]
    },
    {
      "name" : "MCH-shoulder_rh_ns_ch_L",
      "children" : [ 216 ],
      "translation" : [ 0.248214, 1.44964, 0.0271488 ],
      "rotation" : [ 0.000230182, 0.49644, 0.000173614, -0.868071 ]
    },
    {
      "name" : "DEF-upper_arm_01_L",
      "children" : [ 217 ],
      "translation" : [ 1.80315e-08, 1.84217e-07, -5.46304e-08 ],
      "rotation" : [ 0.0451367, 0.328746, 0.724158, -0.604552 ]
    },
    {
      "name" : "DEF-upper_arm_01_L_end",
      "translation" : [ 0.101916, 0.0482798, -0.185167 ],
      "rotation" : [ 0.243476, 0.122228, 0.179004, -0.945377 ]
    },
    {
      "name" : "DEF-hips",
      "children" : [ 219 ],
      "translation" : [ 0, 0.94967, -0.0519079 ],
      "rotation" : [ -0.778973, -0, 0, -0.627058 ]
    },
    {
      "name" : "DEF-hips_end",
      "translation" : [ 0.010443, 0.0110706, -0.146293 ],
      "rotation" : [ 0.0781552, 0.0511576, -0.00704833, -0.995603 ]
    },
    {
      "name" : "MCH-hips_rh_ns_ch",
      "children" : [ 221 ],
      "translation" : [ 0.107885, 0.934664, -0.0116605 ],
      "rotation" : [ -0.778972, -0, 0, -0.627058 ]
    },
    {
      "name" : "DEF-thigh_01_L",
      "children" : [ 222 ],
      "translation" : [ -3.03651e-08, -1.82698e-08, 1.4671e-07 ],
      "rotation" : [ -0.986748, -0.000510993, -0.000633446, -0.162256 ]
    },
    {
      "name" : "DEF-thigh_01_L_end",
      "translation" : [ 0.0309568, -0.0826592, -0.265018 ],
      "rotation" : [ 0.111175, 0.0798103, -0.0214692, -0.990358 ]
    },
    {
      "name" : "MCH-hips_rh_ns_ch_001",
      "children" : [ 224 ],
      "translation" : [ -0.107885, 0.934664, -0.0116605 ],
      "rotation" : [ -0.778972, -0, 0, -0.627058 ]
    },
    {
      "name" : "DEF-thigh_01_R",
      "children" : [ 225 ],
      "translation" : [ 3.03651e-08, -1.82698e-08, 1.4671e-07 ],
      "rotation" : [ -0.986748, 0.000510993, 0.000633446, -0.162256 ]
    },
    {
      "name" : "DEF-thigh_01_R_end",
      "translation" : [ -0.00513175, -0.0521262, -0.251108 ],
      "rotation" : [ 0.03983, 0.00368096, -0.0121698, -0.999126 ]
    }
  ],
  "skins" : [
    {
      "inverseBindMatrices" : 0,
      "skeleton" : 1,
      "joints" : [
        1,2,3,4,5,6,7,8,9,10,11,12,13,14,15,16,17,18,19,20,21,22,23,24,25,26,27,28,29,30,31,32,
        33,34,35,36,37,38,39,40,41,42,43,44,45,46,47,48,49,50,51,52,53,54,55,56,57,58,59,60,61,62,63,64,
        65,66,67,68,69,70,71,72,73,74,75,76,77,78,79,80,81,82,83,84,85,86,87,88,89,90,91,92,93,94,95,96,
        97,98,99,100,101,102,103,104,105,106,107,108,109,110,111,112,113,114,115,116,117,118,119,120,121,122,123,124,125,126,127,128,
        129,130,131,132,133,134,135,136,137,138,139,140,141,142,143,144,145,146,147,148,149,150,151,152,153,154,155,156,157,158,159,160,
        161,162,163,164,165,166,167,168,169,170,171,172,173,174,175,176,177,178,179,180,181,182,183,184,185,186,187,188,189,190,191,192,
        193,194,195,196,197,198,199,200,201,202,203,204,205,206,207,208,209,210,211,212,213,214,215,216,217,218,219,220,221,222,223,224,
        225
      ]
    }
  ],
  "materials" : [
    {
      "name" : "sweather_shoes_gloves_m",
      "pbrMetallicRoughness" : {
        "baseColorFactor" : [ 0.3, 0.3, 0.3, 1.0 ],
        "metallicFactor" : 0.1,
        "roughnessFactor" : 0.5
      }
    },
    {
      "name" : "skin_m",
      "pbrMetallicRoughness" : {
        "baseColorFactor" : [ 0.9, 0.3, 0.3, 1.0 ],
        "metallicFactor" : 0.1,
        "roughnessFactor" : 0.5
      }
    },
    {
      "name" : "hair_m",
      "pbrMetallicRoughness" : {
        "baseColorFactor" : [ 0.3, 0.9, 0.3, 1.0 ],
        "metallicFactor" : 0.1,
        "roughnessFactor" : 0.5
      }
    },
    {
      "name" : "pants_short_m",
      "pbrMetallicRoughness" : {
        "baseColorFactor" : [ 0.3, 0.3, 0.9, 1.0 ],
        "metallicFactor" : 0.1,
        "roughnessFactor" : 0.5
      }
    }
  ],
  "meshes" : [
    {
      "primitives" : [
        {
          "attributes" : {
            "POSITION" : 2,
            "NORMAL" : 3,
            "TANGENT" : 4,
            "COLOR_0" : 5,
            "JOINTS_0" : 6,
            "WEIGHTS_0" : 7,
            "TEXCOORD_0" : 8
          },
          "indices" : 1,
          "material" : 0
        },
        {
          "attributes" : {
            "POSITION" : 10,
            "NORMAL" : 11,
            "TANGENT" : 12,
            "COLOR_0" : 13,
            "JOINTS_0" : 14,
            "WEIGHTS_0" : 15,
            "TEXCOORD_0" : 16
          },
          "indices" : 9,
          "material" : 1
        },
        {
          "attributes" : {
            "POSITION" : 18,
            "NORMAL" : 19,
            "TANGENT" : 20,
            "COLOR_0" : 21,
            "JOINTS_0" : 22,
            "WEIGHTS_0" : 23,
            "TEXCOORD_0" : 24
          },
          "indices" : 17,
          "material" : 2
        },
        {
          "attributes" : {
            "POSITION" : 26,
            "NORMAL" : 27,
            "TANGENT" : 28,
            "COLOR_0" : 29,
            "JOINTS_0" : 30,
            "WEIGHTS_0" : 31,
            "TEXCOORD_0" : 32
          },
          "indices" : 25,
          "material" : 3
        }
      ],
      "name" : "neighbour_lowpoly"
    }
  ],
  "buffers" : [
    {
      "uri" : "neighbour_lowpoly.bin",
      "byteLength" : 707492
    }
  ],
  "bufferViews" : [
    {
      "buffer" : 0,
      "byteOffset" : 0,
      "byteLength" : 14400
    },
    {
      "buffer" : 0,
      "byteOffset" : 14400,
      "byteLength" : 32160
    },
    {
      "buffer" : 0,
      "byteOffset" : 46560,
      "byteLength" : 38820
    },
    {
      "buffer" : 0,
      "byteOffset" : 85380,
      "byteLength" : 38820
    },
    {
      "buffer" : 0,
      "byteOffset" : 124200,
      "byteLength" : 51760
    },
    {
      "buffer" : 0,
      "byteOffset" : 175960,
      "byteLength" : 12940
    },
    {
      "buffer" : 0,
      "byteOffset" : 188900,
      "byteLength" : 25880
    },
    {
      "buffer" : 0,
      "byteOffset" : 214780,
      "byteLength" : 12940
    },
    {
      "buffer" : 0,
      "byteOffset" : 227720,
      "byteLength" : 25880
    },
    {
      "buffer" : 0,
      "byteOffset" : 253600,
      "byteLength" : 35460
    },
    {
      "buffer" : 0,
      "byteOffset" : 289060,
      "byteLength" : 38712
    },
    {
      "buffer" : 0,
      "byteOffset" : 327772,
      "byteLength" : 38712
    },
    {
      "buffer" : 0,
      "byteOffset" : 366484,
      "byteLength" : 51616
    },
    {
      "buffer" : 0,
      "byteOffset" : 418100,
      "byteLength" : 12904
    },
    {
      "buffer" : 0,
      "byteOffset" : 431004,
      "byteLength" : 25808
    },
    {
      "buffer" : 0,
      "byteOffset" : 456812,
      "byteLength" : 12904
    },
    {
      "buffer" : 0,
      "byteOffset" : 469716,
      "byteLength" : 25808
    },
    {
      "buffer" : 0,
      "byteOffset" : 495524,
      "byteLength" : 12752
    },
    {
      "buffer" : 0,
      "byteOffset" : 508276,
      "byteLength" : 14340
    },
    {
      "buffer" : 0,
      "byteOffset" : 522616,
      "byteLength" : 14340
    },
    {
      "buffer" : 0,
      "byteOffset" : 536956,
      "byteLength" : 19120
    },
    {
      "buffer" : 0,
      "byteOffset" : 556076,
      "byteLength" : 4780
    },
    {
      "buffer" : 0,
      "byteOffset" : 560856,
      "byteLength" : 9560
    },
    {
      "buffer" : 0,
      "byteOffset" : 570416,
      "byteLength" : 4780
    },
    {
      "buffer" : 0,
      "byteOffset" : 575196,
      "byteLength" : 9560
    },
    {
      "buffer" : 0,
      "byteOffset" : 584756,
      "byteLength" : 16368
    },
    {
      "buffer" : 0,
      "byteOffset" : 601124,
      "byteLength" : 19944
    },
    {
      "buffer" : 0,
      "byteOffset" : 621068,
      "byteLength" : 19944
    },
    {
      "buffer" : 0,
      "byteOffset" : 641012,
      "byteLength" : 26592
    },
    {
      "buffer" : 0,
      "byteOffset" : 667604,
      "byteLength" : 6648
    },
    {
      "buffer" : 0,
      "byteOffset" : 674252,
      "byteLength" : 13296
    },
    {
      "buffer" : 0,
      "byteOffset" : 687548,
      "byteLength" : 6648
    },
    {
      "buffer" : 0,
      "byteOffset" : 694196,
      "byteLength" : 13296
    }
  ],
  "accessors" : [
    {
      "bufferView" : 0,
      "componentType" : 5126,
      "count" : 225,
      "type" : "MAT4"
    },
    {
      "bufferView" : 1,
      "componentType" : 5123,
      "count" : 16080,
      "type" : "SCALAR"
    },
    {
      "bufferView" : 2,
      "min" : [ -0.904517, -0.000783882, -0.147065 ],
      "max" : [ 0.904517, 1.56371, 0.24766 ],
      "componentType" : 5126,
      "count" : 3235,
      "type" : "VEC3"
    },
    {
      "bufferView" : 3,
      "componentType" : 5126,
      "count" : 3235,
      "type" : "VEC3"
    },
    {
      "bufferView" : 4,
      "componentType" : 5126,
      "count" : 3235,
      "type" : "VEC4"
    },
    {
      "bufferView" : 5,
      "normalized" : true,
      "componentType" : 5121,
      "count" : 3235,
      "type" : "VEC4"
    },
    {
      "bufferView" : 6,
      "componentType" : 5123,
      "count" : 3235,
      "type" : "VEC4"
    },
    {
      "bufferView" : 7,
      "normalized" : true,
      "componentType" : 5121,
      "count" : 3235,
      "type" : "VEC4"
    },
    {
      "bufferView" : 8,
      "componentType" : 5126,
      "count" : 3235,
      "type" : "VEC2"
    },
    {
      "bufferView" : 9,
      "componentType" : 5123,
      "count" : 17730,
      "type" : "SCALAR"
    },
    {
      "bufferView" : 10,
      "min" : [ -0.77265, 1.10875, -0.0693013 ],
      "max" : [ 0.77265, 1.86837, 0.236585 ],
      "componentType" : 5126,
      "count" : 3226,
      "type" : "VEC3"
    },
    {
      "bufferView" : 11,
      "componentType" : 5126,
      "count" : 3226,
      "type" : "VEC3"
    },
    {
      "bufferView" : 12,
      "componentType" : 5126,
      "count" : 3226,
      "type" : "VEC4"
    },
    {
      "bufferView" : 13,
      "normalized" : true,
      "componentType" : 5121,
      "count" : 3226,
      "type" : "VEC4"
    },
    {
      "bufferView" : 14,
      "componentType" : 5123,
      "count" : 3226,
      "type" : "VEC4"
    },
    {
      "bufferView" : 15,
      "normalized" : true,
      "componentType" : 5121,
      "count" : 3226,
      "type" : "VEC4"
    },
    {
      "bufferView" : 16,
      "componentType" : 5126,
      "count" : 3226,
      "type" : "VEC2"
    },
    {
      "bufferView" : 17,
      "componentType" : 5123,
      "count" : 6375,
      "type" : "SCALAR"
    },
    {
      "bufferView" : 18,
      "min" : [ -0.134472, 1.60742, -0.11346 ],
      "max" : [ 0.135733, 1.92141, 0.227156 ],
      "componentType" : 5126,
      "count" : 1195,
      "type" : "VEC3"
    },
    {
      "bufferView" : 19,
      "componentType" : 5126,
      "count" : 1195,
      "type" : "VEC3"
    },
    {
      "bufferView" : 20,
      "componentType" : 5126,
      "count" : 1195,
      "type" : "VEC4"
    },
    {
      "bufferView" : 21,
      "normalized" : true,
      "componentType" : 5121,
      "count" : 1195,
      "type" : "VEC4"
    },
    {
      "bufferView" : 22,
      "componentType" : 5123,
      "count" : 1195,
      "type" : "VEC4"
    },
    {
      "bufferView" : 23,
      "normalized" : true,
      "componentType" : 5121,
      "count" : 1195,
      "type" : "VEC4"
    },
    {
      "bufferView" : 24,
      "componentType" : 5126,
      "count" : 1195,
      "type" : "VEC2"
    },
    {
      "bufferView" : 25,
      "componentType" : 5123,
      "count" : 8184,
      "type" : "SCALAR"
    },
    {
      "bufferView" : 26,
      "min" : [ -0.510769, 0.0902493, -0.119046 ],
      "max" : [ 0.510769, 1.57869, 0.25264 ],
      "componentType" : 5126,
      "count" : 1662,
      "type" : "VEC3"
    },
    {
      "bufferView" : 27,
      "componentType" : 5126,
      "count" : 1662,
      "type" : "VEC3"
    },
    {
      "bufferView" : 28,
      "componentType" : 5126,
      "count" : 1662,
      "type" : "VEC4"
    },
    {
      "bufferView" : 29,
      "normalized" : true,
      "componentType" : 5121,
      "count" : 1662,
      "type" : "VEC4"
    },
    {
      "bufferView" : 30,
      "componentType" : 5123,
      "count" : 1662,
      "type" : "VEC4"
    },
    {
      "bufferView" : 31,
      "normalized" : true,
      "componentType" : 5121,
      "count" : 1662,
      "type" : "VEC4"
    },
    {
      "bufferView" : 32,
      "componentType" : 5126,
      "count" : 1662,
      "type" : "VEC2"
    }
  ]
}
