{
  "asset" : {
    "generator" : "UE Viewer (umodel) build 1590",
    "version" : "2.0"
  },
  "scene" : 0,
  "scenes" : [
    {
      "nodes" : [ 0 ]
    }
  ],
  "nodes" : [
    {
      "name" : "box",
      "mesh" : 0
    }
  ],
  "materials" : [
    {
      "name" : "box_m",
      "pbrMetallicRoughness" : {
        "baseColorFactor" : [ 0.3, 0.3, 0.3, 1.0 ],
        "metallicFactor" : 0.1,
        "roughnessFactor" : 0.5
      }
    }
  ],
  "meshes" : [
    {
      "primitives" : [
        {
          "attributes" : {
            "POSITION" : 1,
            "NORMAL" : 2,
            "TANGENT" : 3,
            "TEXCOORD_0" : 4,
            "TEXCOORD_1" : 5
          },
          "indices" : 0,
          "material" : 0
        }
      ],
      "name" : "box"
    }
  ],
  "buffers" : [
    {
      "uri" : "box.bin",
      "byteLength" : 5368
    }
  ],
  "bufferViews" : [
    {
      "buffer" : 0,
      "byteOffset" : 0,
      "byteLength" : 384
    },
    {
      "buffer" : 0,
      "byteOffset" : 384,
      "byteLength" : 1068
    },
    {
      "buffer" : 0,
      "byteOffset" : 1452,
      "byteLength" : 1068
    },
    {
      "buffer" : 0,
      "byteOffset" : 2520,
      "byteLength" : 1424
    },
    {
      "buffer" : 0,
      "byteOffset" : 3944,
      "byteLength" : 712
    },
    {
      "buffer" : 0,
      "byteOffset" : 4656,
      "byteLength" : 712
    }
  ],
  "accessors" : [
    {
      "bufferView" : 0,
      "componentType" : 5123,
      "count" : 192,
      "type" : "SCALAR"
    },
    {
      "bufferView" : 1,
      "min" : [ -0.264747, 0.00170573, -0.262707 ],
      "max" : [ 0.262719, 0.461289, 0.26273 ],
      "componentType" : 5126,
      "count" : 89,
      "type" : "VEC3"
    },
    {
      "bufferView" : 2,
      "componentType" : 5126,
      "count" : 89,
      "type" : "VEC3"
    },
    {
      "bufferView" : 3,
      "componentType" : 5126,
      "count" : 89,
      "type" : "VEC4"
    },
    {
      "bufferView" : 4,
      "componentType" : 5126,
      "count" : 89,
      "type" : "VEC2"
    },
    {
      "bufferView" : 5,
      "componentType" : 5126,
      "count" : 89,
      "type" : "VEC2"
    }
  ]
}
