{
  "asset" : {
    "generator" : "UE Viewer (umodel) build 1590",
    "version" : "2.0"
  },
  "scene" : 0,
  "scenes" : [
    {
      "nodes" : [ 0 ]
    }
  ],
  "nodes" : [
    {
      "name" : "crowbar",
      "mesh" : 0
    }
  ],
  "materials" : [
    {
      "name" : "crowbar_inst",
      "pbrMetallicRoughness" : {
        "baseColorFactor" : [ 0.3, 0.3, 0.3, 1.0 ],
        "metallicFactor" : 0.1,
        "roughnessFactor" : 0.5
      }
    }
  ],
  "meshes" : [
    {
      "primitives" : [
        {
          "attributes" : {
            "POSITION" : 1,
            "NORMAL" : 2,
            "TANGENT" : 3,
            "TEXCOORD_0" : 4,
            "TEXCOORD_1" : 5
          },
          "indices" : 0,
          "material" : 0
        }
      ],
      "name" : "crowbar"
    }
  ],
  "buffers" : [
    {
      "uri" : "crowbar.bin",
      "byteLength" : 17564
    }
  ],
  "bufferViews" : [
    {
      "buffer" : 0,
      "byteOffset" : 0,
      "byteLength" : 2220
    },
    {
      "buffer" : 0,
      "byteOffset" : 2220,
      "byteLength" : 3288
    },
    {
      "buffer" : 0,
      "byteOffset" : 5508,
      "byteLength" : 3288
    },
    {
      "buffer" : 0,
      "byteOffset" : 8796,
      "byteLength" : 4384
    },
    {
      "buffer" : 0,
      "byteOffset" : 13180,
      "byteLength" : 2192
    },
    {
      "buffer" : 0,
      "byteOffset" : 15372,
      "byteLength" : 2192
    }
  ],
  "accessors" : [
    {
      "bufferView" : 0,
      "componentType" : 5123,
      "count" : 1110,
      "type" : "SCALAR"
    },
    {
      "bufferView" : 1,
      "min" : [ -0.0286413, -0.322656, -0.0452454 ],
      "max" : [ 0.0286413, 0.322931, 0.0769085 ],
      "componentType" : 5126,
      "count" : 274,
      "type" : "VEC3"
    },
    {
      "bufferView" : 2,
      "componentType" : 5126,
      "count" : 274,
      "type" : "VEC3"
    },
    {
      "bufferView" : 3,
      "componentType" : 5126,
      "count" : 274,
      "type" : "VEC4"
    },
    {
      "bufferView" : 4,
      "componentType" : 5126,
      "count" : 274,
      "type" : "VEC2"
    },
    {
      "bufferView" : 5,
      "componentType" : 5126,
      "count" : 274,
      "type" : "VEC2"
    }
  ]
}
